<?xml version="1.0" encoding="iso-8859-1"?>
<!-- Generator: Adobe Illustrator 17.1.0, SVG Export Plug-In . SVG Version: 6.00 Build 0)  -->
<!DOCTYPE svg PUBLIC "-//W3C//DTD SVG 1.1//EN" "http://www.w3.org/Graphics/SVG/1.1/DTD/svg11.dtd">
<svg version="1.1" id="Capa_1" xmlns="http://www.w3.org/2000/svg" xmlns:xlink="http://www.w3.org/1999/xlink" x="0px" y="0px"
	 viewBox="0 0 368.873 368.873" style="enable-background:new 0 0 368.873 368.873;" xml:space="preserve">
<g>
	<path d="M42.514,113.384h95.751c4.143,0,7.5-3.358,7.5-7.5c0-4.142-3.357-7.5-7.5-7.5H42.514c-4.142,0-7.5,3.358-7.5,7.5
		C35.014,110.026,38.371,113.384,42.514,113.384z"/>
	<path d="M42.514,169.78h95.751c4.143,0,7.5-3.358,7.5-7.5c0-4.142-3.357-7.5-7.5-7.5H42.514c-4.142,0-7.5,3.358-7.5,7.5
		C35.014,166.422,38.371,169.78,42.514,169.78z"/>
	<path d="M42.514,226.178h95.751c4.143,0,7.5-3.358,7.5-7.5c0-4.142-3.357-7.5-7.5-7.5H42.514c-4.142,0-7.5,3.358-7.5,7.5
		C35.014,222.82,38.371,226.178,42.514,226.178z"/>
	<path d="M145.765,275.074c0-4.142-3.357-7.5-7.5-7.5H42.514c-4.142,0-7.5,3.358-7.5,7.5c0,4.142,3.358,7.5,7.5,7.5h95.751
		C142.407,282.574,145.765,279.216,145.765,275.074z"/>
	<path d="M368.671,48.882c-0.46-1.935-1.669-3.609-3.362-4.653l-17.409-10.732c-3.524-2.173-8.146-1.078-10.319,2.448l-4.224,6.85
		c-0.269-0.063-0.542-0.116-0.822-0.15c-0.275-0.034-0.562-0.068-0.846-0.102V25.937c0-4.142-3.358-7.5-7.5-7.5H22.062
		c-4.143,0-7.5,3.358-7.5,7.5v17.612c-4.61,0.524-7.443,0.9-8.065,0.984C2.775,45.036,0,48.212,0,51.966v271.449
		c0,2.181,0.949,4.253,2.6,5.678c1.371,1.183,3.113,1.822,4.9,1.822c0.364,0,0.731-0.026,1.098-0.081
		c0.131-0.02,2.234-0.324,5.964-0.78v12.882c0,4.142,3.357,7.5,7.5,7.5h302.127c4.142,0,7.5-3.358,7.5-7.5v-13.697
		c7.758,0.878,12.225,1.557,12.412,1.586c2.172,0.334,4.369-0.29,6.034-1.714c1.664-1.425,2.622-3.506,2.622-5.697V78.88l15-24.331
		C368.801,52.856,369.13,50.818,368.671,48.882z M346.412,50.201l4.641,2.861L233.327,244.018l-7.055,6.77l2.509-9.786
		L346.412,50.201z M29.562,33.437h287.127v7.483c-32.623-3.134-89.124-6.094-140.351,3.422c-51.7-9.021-113.82-5.376-146.776-2.331
		V33.437z M15,314.869V58.615c21.922-2.487,95.022-9.5,153.879-0.3v256.398C104.247,305.756,38.224,312.074,15,314.869z
		 M316.689,335.437H29.562v-7.011c30.667-2.951,90.147-6.535,145.626,2.394c0.768,0.124,1.553,0.127,2.319,0.01
		c54.157-8.241,107.936-5.825,139.182-3.089V335.437z M337.757,314.82c-22.701-2.834-86.357-9.037-153.878-0.048V58.24
		c53.586-9.067,112.403-4.585,140.825-1.409l-25.618,41.553h-85.522c-4.143,0-7.5,3.358-7.5,7.5c0,4.142,3.357,7.5,7.5,7.5h76.274
		l-25.52,41.397h-50.754c-4.143,0-7.5,3.358-7.5,7.5c0,4.142,3.357,7.5,7.5,7.5h41.506l-25.521,41.397h-15.984
		c-4.143,0-7.5,3.358-7.5,7.5c0,4.142,3.357,7.5,7.5,7.5h6.736l-4.857,7.877c-0.143,0.23-0.276,0.468-0.395,0.716
		c-0.028,0.058-0.049,0.119-0.076,0.178c-0.073,0.163-0.148,0.326-0.211,0.497c-0.094,0.253-0.172,0.511-0.236,0.769l-9.32,36.35
		c-0.01,0.04-0.015,0.079-0.023,0.118c-0.034,0.142-0.063,0.285-0.088,0.428c-0.02,0.109-0.039,0.218-0.054,0.327
		c-0.016,0.12-0.026,0.241-0.036,0.362c-0.012,0.13-0.023,0.26-0.026,0.39c-0.004,0.1-0.001,0.201,0,0.302
		c0.001,0.145,0.002,0.29,0.012,0.434c0.006,0.094,0.019,0.188,0.028,0.281c0.015,0.145,0.029,0.29,0.053,0.433
		c0.018,0.105,0.041,0.208,0.063,0.311c0.027,0.129,0.053,0.258,0.086,0.385c0.031,0.121,0.071,0.24,0.109,0.36
		c0.034,0.107,0.065,0.213,0.104,0.317c0.049,0.131,0.104,0.26,0.16,0.389c0.04,0.091,0.077,0.184,0.121,0.273
		c0.061,0.126,0.128,0.249,0.196,0.372c0.051,0.092,0.1,0.184,0.154,0.273c0.065,0.108,0.138,0.214,0.21,0.319
		c0.07,0.103,0.14,0.205,0.214,0.305c0.065,0.086,0.134,0.168,0.203,0.252c0.095,0.114,0.19,0.227,0.292,0.336
		c0.026,0.029,0.049,0.06,0.076,0.088c0.038,0.04,0.08,0.073,0.118,0.111c0.116,0.115,0.234,0.228,0.357,0.336
		c0.071,0.063,0.145,0.124,0.218,0.184c0.117,0.095,0.238,0.188,0.363,0.276c0.086,0.062,0.173,0.122,0.262,0.18
		c0.114,0.074,0.231,0.145,0.35,0.214c0.104,0.06,0.209,0.118,0.314,0.172c0.065,0.034,0.129,0.069,0.195,0.101
		c1.224,0.867,2.715,1.381,4.328,1.381h95.751c4.143,0,7.5-3.358,7.5-7.5c0-4.142-3.357-7.5-7.5-7.5h-78.872l13.892-13.33
		c0.012-0.011,0.023-0.023,0.035-0.034l0.032-0.031c0.205-0.197,0.395-0.405,0.572-0.619c0.046-0.055,0.087-0.114,0.131-0.17
		c0.151-0.192,0.292-0.39,0.422-0.594c0.021-0.032,0.046-0.061,0.066-0.093l16.353-26.526h47.368c4.143,0,7.5-3.358,7.5-7.5
		c0-4.142-3.357-7.5-7.5-7.5h-38.12l25.521-41.397h12.599c4.143,0,7.5-3.358,7.5-7.5c0-4.142-3.357-7.5-7.5-7.5h-3.351l31.793-51.57
		V314.82z"/>
</g>
<g>
</g>
<g>
</g>
<g>
</g>
<g>
</g>
<g>
</g>
<g>
</g>
<g>
</g>
<g>
</g>
<g>
</g>
<g>
</g>
<g>
</g>
<g>
</g>
<g>
</g>
<g>
</g>
<g>
</g>
</svg>
