<?xml version="1.0" standalone="no"?>
<!DOCTYPE svg PUBLIC "-//W3C//DTD SVG 20010904//EN"
 "http://www.w3.org/TR/2001/REC-SVG-20010904/DTD/svg10.dtd">
<svg version="1.0" xmlns="http://www.w3.org/2000/svg"
 width="225.000000pt" height="225.000000pt" viewBox="0 0 225.000000 225.000000"
 preserveAspectRatio="xMidYMid meet">

<g transform="translate(0.000000,225.000000) scale(0.100000,-0.100000)"
fill="#000000" stroke="none">
<path d="M205 2044 c-72 -37 -108 -93 -108 -169 0 -77 48 -149 116 -174 19 -8
312 -11 912 -11 600 0 893 3 912 11 68 25 116 97 116 174 0 77 -48 149 -116
174 -19 8 -313 11 -915 11 -784 0 -890 -2 -917 -16z"/>
<path d="M210 1299 c-33 -13 -78 -57 -97 -94 -22 -41 -20 -126 3 -166 10 -17
36 -46 57 -63 l39 -31 619 -3 c593 -2 620 -2 656 17 73 37 107 98 101 182 -5
68 -38 118 -98 149 -38 19 -59 20 -647 19 -378 0 -617 -4 -633 -10z"/>
<path d="M210 549 c-66 -26 -113 -99 -113 -174 0 -77 48 -149 116 -174 18 -7
148 -11 353 -11 304 0 327 1 363 20 133 68 132 264 -1 329 -42 20 -58 21 -369
20 -190 0 -334 -4 -349 -10z"/>
</g>
</svg>
