<?xml version="1.0" standalone="no"?><!DOCTYPE svg PUBLIC "-//W3C//DTD SVG 20010904//EN"
    "http://www.w3.org/TR/2001/REC-SVG-20010904/DTD/svg10.dtd">
<svg height="225.000000pt" preserveAspectRatio="xMidYMid meet" version="1.0"
    viewBox="0 0 225.000000 225.000000" width="225.000000pt" xmlns="http://www.w3.org/2000/svg">
    <metadata>
        Created by potrace 1.16, written by Peter Selinger 2001-2019
    </metadata>
    <g fill="#000000" stroke="none"
        transform="translate(0.000000,225.000000) scale(0.100000,-0.100000)">
        <path d="M248 2240 c-46 -14 -85 -48 -107 -93 -21 -43 -21 -50 -21 -1022 0
-977 0 -979 21 -1023 38 -78 133 -118 215 -90 22 8 418 230 879 493 942 539
890 503 890 620 0 117 52 81 -887 618 -459 262 -851 484 -871 492 -39 16 -77
18 -119 5z m856 -604 l287 -163 -72 -94 c-40 -52 -77 -100 -84 -107 -9 -11
-36 18 -132 145 -66 87 -159 209 -207 271 -47 61 -84 112 -82 112 2 0 132 -74
290 -164z m646 -370 c157 -90 215 -128 215 -142 0 -14 -142 -99 -574 -346
-316 -181 -575 -327 -576 -326 -3 4 709 937 715 937 3 0 102 -55 220 -123z" />
    </g>
</svg>
