<?xml version="1.0" standalone="no"?><!DOCTYPE svg PUBLIC "-//W3C//DTD SVG 20010904//EN"
    "http://www.w3.org/TR/2001/REC-SVG-20010904/DTD/svg10.dtd">
<svg height="79.000000pt" preserveAspectRatio="xMidYMid meet" version="1.0"
    viewBox="0 0 100.000000 79.000000" width="100.000000pt" xmlns="http://www.w3.org/2000/svg">

    <g fill="#000000" stroke="none"
        transform="translate(0.000000,79.000000) scale(0.100000,-0.100000)">
        <path d="M588 723 l-3 -58 -63 -7 c-291 -32 -483 -249 -498 -563 l-5 -100 24
61 c70 182 177 280 341 314 55 11 154 8 192 -7 10 -3 14 -21 14 -59 0 -30 2
-54 4 -54 5 0 374 247 389 260 6 5 -156 118 -365 254 l-27 18 -3 -59z" />
    </g>
</svg>
