<?xml version="1.0" standalone="no"?><!DOCTYPE svg PUBLIC "-//W3C//DTD SVG 20010904//EN"
    "http://www.w3.org/TR/2001/REC-SVG-20010904/DTD/svg10.dtd">
<svg height="500.000000pt" preserveAspectRatio="xMidYMid meet" version="1.0"
    viewBox="0 0 500.000000 500.000000" width="500.000000pt" xmlns="http://www.w3.org/2000/svg">
    <metadata>
        Created by potrace 1.16, written by Peter Selinger 2001-2019
    </metadata>
    <g fill="#000000" stroke="none"
        transform="translate(0.000000,500.000000) scale(0.100000,-0.100000)">
        <path d="M2315 4994 c-16 -2 -72 -9 -123 -15 -190 -22 -355 -65 -642 -167 -93
-34 -286 -133 -395 -203 -39 -25 -117 -83 -173 -130 -57 -46 -118 -94 -135
-106 -35 -23 -205 -195 -228 -230 -8 -11 -52 -68 -98 -125 -189 -232 -285
-415 -402 -773 -155 -469 -157 -1012 -5 -1475 74 -227 95 -281 153 -395 79
-154 156 -273 254 -393 46 -57 90 -114 98 -125 23 -35 193 -207 228 -230 17
-12 78 -60 135 -106 166 -136 407 -276 578 -337 369 -130 556 -169 864 -181
338 -12 602 35 1016 181 171 61 412 201 578 337 57 46 118 94 135 106 35 23
205 195 228 230 8 11 52 68 98 125 136 166 276 407 337 578 130 368 184 635
184 909 0 77 -3 92 -30 137 -36 63 -82 94 -155 101 -71 7 -132 -15 -179 -67
-44 -49 -56 -92 -56 -207 0 -317 -134 -761 -311 -1033 -243 -372 -572 -657
-924 -801 -333 -136 -538 -179 -845 -179 -307 0 -510 43 -845 179 -275 112
-555 326 -767 586 -134 164 -225 312 -289 470 -136 335 -179 538 -179 845 0
307 43 512 179 845 113 276 326 555 586 767 216 176 404 277 700 376 159 53
392 92 548 92 115 0 158 12 207 56 51 46 74 107 68 178 -6 75 -41 126 -109
160 -47 23 -63 26 -153 25 -56 -1 -114 -4 -131 -5z" />
        <path d="M3280 4801 c-64 -26 -102 -83 -108 -160 -7 -100 30 -171 111 -212 59
-31 159 -24 215 14 45 32 82 111 82 178 0 46 -25 115 -53 146 -45 50 -165 67
-247 34z" />
        <path d="M4019 4307 c-91 -47 -126 -184 -75 -293 20 -43 31 -54 74 -72 68 -30
142 -29 208 2 43 20 55 32 78 77 31 63 34 126 7 184 -22 47 -74 99 -114 114
-49 19 -130 13 -178 -12z" />
        <path d="M2436 4156 c-84 -31 -131 -88 -141 -169 -3 -29 -5 -392 -3 -807 l3
-755 23 -37 c28 -44 65 -73 122 -93 22 -8 217 -105 432 -216 l392 -201 68 0
c128 0 208 77 208 200 0 33 -4 72 -10 86 -18 47 -79 104 -135 125 -30 11 -196
93 -369 181 l-315 161 -3 697 c-3 626 -5 700 -20 727 -48 87 -164 133 -252
101z" />
        <path d="M4510 3553 c-69 -35 -101 -92 -101 -176 0 -161 163 -259 309 -186 38
20 52 35 74 79 34 68 36 129 7 205 -19 52 -25 58 -76 81 -76 33 -143 32 -213
-3z" />
    </g>
</svg>
